PathFileType	4	(X/Y/Z)	../Python\walking\Walking16\task.trc
DataRate	CameraRate	NumFrames	NumMarkers	Units	OrigDataRate	OrigDataStartFrame	OrigNumFrames
200.000000	200.000000	7	30	mm	200.000000	113	452
Frame#	Time	C7			RBAK			CLAV			STRN			RASI			LASI			PE01			RTH1			RTH2			RTH3			RD5M			RTOE			LTH2			LTH3			LTB2			LTB3			LHEE			LTOE			LD5M			LTB1			RTB2			RHEE			RTB3			RTB1			LTH1			LPSI			PE03			PE02			RPSI			T10			
		X1	Y1	Z1	X2	Y2	Z2	X3	Y3	Z3	X4	Y4	Z4	X5	Y5	Z5	X6	Y6	Z6	X7	Y7	Z7	X8	Y8	Z8	X9	Y9	Z9	X10	Y10	Z10	X11	Y11	Z11	X12	Y12	Z12	X13	Y13	Z13	X14	Y14	Z14	X15	Y15	Z15	X16	Y16	Z16	X17	Y17	Z17	X18	Y18	Z18	X19	Y19	Z19	X20	Y20	Z20	X21	Y21	Z21	X22	Y22	Z22	X23	Y23	Z23	X24	Y24	Z24	X25	Y25	Z25	X26	Y26	Z26	X27	Y27	Z27	X28	Y28	Z28	X29	Y29	Z29	X30	Y30	Z30	

114	0.5650000000000001	-755.680847167969	1328.952758789063	161.7207794189454	-785.6025390625005	1237.255981445313	284.8402404785157	-640.9351196289065	1227.426025390625	143.3703613281251	-587.030212402344	1042.044555664063	150.6170349121094	-617.0089111328127	855.5064086914067	302.8055419921876	-604.7325439453127	850.1738891601567	74.35491180419925	-805.3059692382817	926.1990356445317	183.2667388916016	-748.2404785156252	575.6602783203127	323.733856201172	-751.8629150390627	498.7835693359377	302.4092712402345	-710.771179199219	544.8090820312502	308.3479614257814	-830.1351928710942	15.47397232055665	270.4273986816407	-791.3308715820317	28.26907348632814	215.4476013183595	-595.068786621094	530.0503540039065	58.10936355590823	-542.8416748046877	582.9910888671877	34.00505447387697	-457.8487548828127	203.7877807617189	68.00698089599612	-434.500671386719	247.5377960205079	66.19314575195315	-399.7230224609377	30.05170631408693	126.6362380981446	-229.0254669189454	112.2140045166016	101.377296447754	-258.7485656738282	77.32917022705081	62.77540969848636	-489.3738098144534	276.4111328125001	57.97314071655276	-862.8499145507817	251.4297637939454	290.6737670898439	-979.4042968750005	41.27522277832033	205.5375061035157	-844.0328979492192	208.0875854492189	272.2474060058595	-809.888549804688	279.1466674804689	279.916717529297	-592.872741699219	587.6755371093752	35.51207351684572	-809.6978149414067	884.523559570313	147.4619903564454	-820.7285156250005	865.0973510742192	159.2163238525391	-825.5363769531255	868.4077758789067	209.5063018798829	-813.0623168945317	895.6484375000005	233.0355987548829	-793.7160034179692	1030.302124023438	187.5442199707032	
115	0.5700000000000001	-749.1126098632815	1327.381225585938	161.1942291259766	-778.880493164063	1235.7578125	284.5355529785157	-634.1942138671877	1225.810302734375	142.9359130859376	-579.9796142578127	1040.484497070313	150.5646362304688	-610.2244262695315	854.0752563476567	303.1344604492189	-597.1951293945315	848.8085327148442	74.55670166015628	-797.956420898438	924.800170898438	182.5208282470704	-743.4700927734377	575.0572509765627	323.9034423828126	-747.3823852539065	498.1937561035159	302.6607055664064	-706.0988769531252	543.9399414062502	308.8471984863282	-830.1724243164067	15.43092632293702	270.4553833007814	-791.2738647460942	28.22142219543458	215.5321197509767	-588.111022949219	528.5066528320315	58.38833999633792	-536.058044433594	581.2373657226565	33.29391098022462	-447.5590515136721	203.3018341064454	68.12062072753909	-424.7256469726565	247.3019561767579	66.65728759765628	-388.0203857421877	30.04860687255861	126.8680496215821	-217.703826904297	114.0051498413087	102.9444198608399	-246.9202880859376	78.72265625000003	64.04658508300784	-479.7992858886721	275.6282958984376	58.09924697875979	-860.6326293945317	251.7427062988282	290.8147888183595	-979.1834106445317	42.71055221557619	205.6557922363282	-842.2376098632817	208.1692504882814	272.5242919921876	-807.3307495117192	278.8472290039064	280.2137451171876	-586.0140380859377	585.993103027344	35.28481674194337	-802.3945312500005	883.006958007813	146.8736114501954	-813.448608398438	863.7846069335942	158.2941589355469	-818.638549804688	867.077026367188	208.5468139648439	-806.1850585937505	894.3002929687505	232.207489013672	-786.7785034179692	1028.679077148438	187.2987518310547	
116	0.5750000000000001	-742.514587402344	1325.849243164063	160.6417694091797	-772.1374511718755	1234.304443359375	284.1998291015626	-627.4160156250002	1224.241577148438	142.4834899902344	-572.8837890625002	1038.97412109375	150.4976806640626	-603.3933105468752	852.6582031250005	303.4497375488282	-589.653991699219	847.505004882813	74.7529220581055	-790.5678710937505	923.4685668945317	181.8382568359376	-738.571716308594	574.445495605469	324.0502319335939	-742.7707519531252	497.5964660644534	302.8899841308595	-701.3027343750002	543.070983886719	309.295623779297	-830.2116088867192	15.39511585235596	270.474090576172	-791.2065429687505	28.17639923095705	215.6150665283204	-580.9494628906252	527.1126708984377	58.64011001586917	-529.0820312500002	579.7395629882815	32.71367263793947	-437.7723083496096	202.7912445068361	68.2592697143555	-415.3193969726565	246.9724578857423	67.1684265136719	-377.3822021484376	29.89387321472169	127.1207809448243	-207.298309326172	115.150489807129	104.6977615356446	-236.0339965820314	79.59981536865237	65.45777893066409	-470.4920043945315	274.9002990722657	58.22922515869143	-858.3217163085942	252.0908813476564	290.9421997070314	-978.9254760742192	44.2486038208008	205.7830657958986	-840.369506835938	208.2835845947267	272.791961669922	-804.6809082031255	278.5661621093751	280.4939575195314	-578.9846801757815	584.4667968750002	35.11577606201173	-795.065063476563	881.5756835937505	146.3214111328126	-806.1370239257817	862.5571899414067	157.4015350341797	-811.6980590820317	865.8013305664067	207.6177825927736	-799.2529296875005	893.0056152343755	231.4236297607423	-779.7898559570317	1027.105590820313	187.0792846679688	
117	0.58	-735.8861083984377	1324.364501953125	160.0639038085938	-765.3721923828127	1232.904663085938	283.8339233398439	-620.600524902344	1222.728637695313	142.0132446289063	-565.743835449219	1037.522338867188	150.4151000976563	-596.5122680664065	851.260620117188	303.7469177246095	-582.1103515625002	846.2731323242192	74.93933868408206	-783.1425781250005	922.209106445313	181.2242584228516	-733.5393066406252	573.823669433594	324.1701049804689	-738.0239257812502	496.9875488281252	303.0928039550782	-696.377136230469	542.199401855469	309.6863098144532	-830.251831054688	15.36809062957764	270.4821777343751	-791.1269531250005	28.13547897338869	215.6952362060548	-573.5698852539065	525.8787231445315	58.85753250122073	-521.884460449219	578.5021972656252	32.2716522216797	-428.4912414550784	202.2452239990236	68.4338302612305	-406.2809143066409	246.5421752929689	67.72613525390628	-367.8025207519532	29.58277702331544	127.3893585205079	-197.7963256835939	115.6127471923829	106.617790222168	-226.083465576172	79.92879486083987	66.99460601806643	-461.4589538574221	274.2194213867189	58.37527465820315	-855.9131469726567	252.4768218994142	291.0549316406251	-978.628051757813	45.89387512207033	205.9229278564454	-838.4254760742192	208.4324951171876	273.0476379394532	-801.9371948242192	278.3065490722657	280.7546691894532	-571.7639160156252	583.1104125976565	35.00666427612306	-787.710327148438	880.2358398437505	145.8088073730469	-798.794067382813	861.4193725585942	156.5444030761719	-804.711547851563	864.5842895507817	206.7257080078126	-792.263549804688	891.767944335938	230.6900024414064	-772.7501831054692	1025.589599609375	186.8879089355469	
118	0.585	-729.2264404296877	1322.93408203125	159.4612884521485	-758.5838623046877	1231.566650390625	283.4387512207032	-613.7479248046877	1221.279663085938	141.5255737304688	-558.5611572265627	1036.137817382813	150.3160400390626	-589.5781860351565	849.8876953125005	304.0213012695314	-574.5653076171877	845.1223754882817	75.1113204956055	-775.682983398438	921.026000976563	180.6832580566407	-728.3677368164065	573.1907958984377	324.2587890625001	-733.137878417969	496.3632812500002	303.2648010253907	-691.3168945312502	541.3230590820315	310.0135803222657	-830.2914428710942	15.35138988494874	270.4786071777345	-791.0335083007817	28.10012435913087	215.7716674804689	-565.9631958007815	524.812927246094	59.03416824340823	-514.4425048828127	577.522644042969	31.96663093566896	-419.7112731933596	201.6595153808595	68.653678894043	-397.6052551269534	246.0102844238282	68.32878112792972	-359.2624511718751	29.12369537353517	127.6682662963868	-189.1738739013672	115.370346069336	108.6793365478516	-217.0537414550782	79.69163513183597	68.63862609863284	-452.7033691406252	273.582000732422	58.54902267456058	-853.4021606445317	252.9032745361329	291.1522827148439	-978.288452148438	47.65177154541017	206.0795288085939	-836.4014282226567	208.6184082031251	273.2888183593751	-799.0967407226567	278.0715942382814	280.9933471679689	-564.3354492187502	581.935485839844	34.95616149902345	-780.3313598632817	878.9927368164067	145.3387603759766	-791.4201049804692	860.3745727539067	155.7284545898438	-797.6759643554692	863.4288940429692	205.8768005371095	-785.2149047851567	890.590209960938	230.0121459960939	-765.659851074219	1024.138427734375	186.7261962890626	
119	0.59	-722.535339355469	1321.56494140625	158.8348083496094	-751.771911621094	1230.298583984375	283.0154113769532	-606.858581542969	1219.902709960938	141.0211029052735	-551.3372802734377	1034.82861328125	150.1998596191407	-582.5884399414065	848.5447387695317	304.2679748535157	-567.019958496094	844.0615844726567	75.26399230957034	-768.192016601563	919.9228515625005	180.2188873291016	-723.0529785156252	572.5468750000002	324.3119506835939	-728.1089477539065	495.7211608886721	303.4016113281251	-686.1174926757815	540.4405517578127	310.2729797363282	-830.3286132812505	15.34670639038087	270.4626464843751	-790.9251098632817	28.07162666320802	215.8435668945314	-558.1257324218752	523.921081542969	59.16421127319339	-506.7412109375002	576.7926025390627	31.791316986084	-411.4203796386721	201.036834716797	68.92601013183597	-389.2832946777346	245.3824615478517	68.97352600097659	-351.7299194335939	28.53743934631349	127.951774597168	-181.3951873779297	114.4185409545899	110.852279663086	-208.9210510253907	78.88511657714847	70.36779785156253	-444.2244567871096	272.988739013672	58.76093292236331	-850.783569335938	253.3733978271486	291.2337951660157	-977.903442382813	49.52879333496097	206.2570648193361	-834.292602539063	208.8444976806642	273.5131225585939	-796.1555786132817	277.8647460937501	281.2077026367189	-556.687683105469	580.9514160156252	34.96019744873048	-772.9294433593755	877.8507690429692	144.9138336181641	-784.0158081054692	859.4255371093755	154.9590454101563	-790.5884399414067	862.3374633789067	205.0769195556642	-778.1054687500005	889.4748535156255	229.3950805664064	-758.5196533203127	1022.759155273438	186.5951843261719	
120	0.595	-715.8126220703127	1320.263793945313	158.1854553222657	-744.9359130859377	1229.107543945313	282.5651245117189	-599.9331054687502	1218.605224609375	140.5006408691407	-544.0738525390627	1033.602661132813	150.0660858154297	-575.5406494140627	847.2368164062505	304.4820556640626	-559.4756469726565	843.0990600585942	75.39237976074222	-760.6728515625002	918.9027709960942	179.8339538574219	-717.5915527343752	571.8928833007815	324.3254699707032	-722.9341430664065	495.0602111816409	303.4989624023439	-680.7752075195315	539.5522460937502	310.4613647460939	-830.3609008789067	15.35606670379639	270.4340209960939	-790.8010253906255	28.05092048645021	215.9104614257814	-550.0594482421877	523.207458496094	59.24225616455081	-498.7744750976565	576.3005371093752	31.73549842834474	-403.599060058594	200.3866424560548	69.25547790527347	-381.301727294922	244.6707916259767	69.65618896484378	-345.1600952148439	27.8557586669922	128.234115600586	-174.4130096435547	112.7698974609376	113.1024551391602	-201.652801513672	77.52104949951175	72.157096862793	-436.0171508789065	272.4447326660157	59.01979064941409	-848.051635742188	253.8909149169923	291.2991943359376	-977.4686889648442	51.53264236450198	206.4593658447267	-832.0930786132817	209.1148376464845	273.718475341797	-793.1087036132817	277.6896362304689	281.3956909179689	-548.8143310546877	580.1656494140627	35.01242828369142	-765.5061035156252	876.8137817382817	144.5360412597657	-776.5819702148442	858.5740356445317	154.2411041259766	-783.4465942382817	861.3120727539067	204.3314819335939	-770.9341430664067	888.4238281250005	228.8432006835939	-751.3308105468752	1021.458312988282	186.4953002929688	
